<?xml version="1.0" standalone="no"?>
<!DOCTYPE svg PUBLIC "-//W3C//DTD SVG 20010904//EN"
 "http://www.w3.org/TR/2001/REC-SVG-20010904/DTD/svg10.dtd">
<svg version="1.0" xmlns="http://www.w3.org/2000/svg"
 width="4608.000000pt" height="2304.000000pt" viewBox="0 0 4608.000000 2304.000000"
 preserveAspectRatio="xMidYMid meet">

<g transform="translate(0.000000,2304.000000) scale(0.100000,-0.100000)"
fill="#000000" stroke="none">
<path d="M11159 15685 c-268 -45 -572 -155 -934 -338 -956 -484 -1755 -1213
-1911 -1744 -72 -249 -24 -454 146 -623 104 -103 184 -145 558 -295 963 -386
1343 -576 1556 -775 74 -69 159 -177 151 -190 -3 -4 -67 -56 -142 -116 -620
-485 -1226 -1034 -1545 -1401 -416 -477 -515 -796 -283 -912 286 -144 1024
235 1527 784 317 346 534 730 633 1125 46 182 51 292 19 446 -6 30 -3 33 343
290 417 312 644 477 648 472 2 -2 -7 -42 -21 -88 -59 -203 -70 -379 -28 -450
58 -99 157 -100 266 -2 60 54 218 239 317 371 72 96 86 111 89 90 53 -459 157
-680 339 -719 132 -28 306 75 455 270 28 38 53 68 54 67 1 -1 -9 -51 -22 -112
-26 -121 -40 -268 -30 -308 17 -70 99 -90 153 -37 17 17 74 110 126 208 52 97
134 245 182 327 88 151 283 455 292 455 2 0 1 -48 -2 -107 -8 -130 7 -291 37
-391 28 -97 83 -161 144 -169 51 -7 110 21 154 74 17 21 99 175 182 343 159
321 164 327 167 217 2 -66 31 -190 60 -252 119 -259 378 -255 685 8 39 34 57
44 53 31 -16 -54 -27 -147 -27 -228 1 -121 21 -169 85 -197 39 -17 51 -18 87
-8 24 6 63 26 88 44 63 46 204 207 348 397 92 122 80 127 103 -37 55 -403 181
-602 380 -599 105 1 241 88 357 226 36 43 67 76 69 74 2 -2 -7 -62 -21 -132
-13 -71 -28 -155 -31 -186 -7 -52 -5 -59 18 -82 31 -31 75 -34 105 -8 12 9 39
63 61 119 198 501 451 943 542 943 41 0 82 -77 150 -283 63 -193 117 -302 179
-365 63 -64 106 -84 182 -83 113 0 230 84 353 250 33 44 60 79 62 78 1 -1 -12
-65 -28 -142 -148 -687 -364 -1801 -433 -2230 -75 -467 -82 -591 -36 -640 35
-37 93 -35 130 5 32 34 80 147 80 188 0 31 -32 72 -56 72 -16 0 -17 -16 21
240 84 553 348 1882 600 3025 108 487 312 1366 320 1373 9 10 960 24 1710 25
827 1 1009 -5 1081 -39 66 -31 137 22 120 91 -14 55 -91 78 -330 97 -197 16
-1406 16 -2086 0 -250 -6 -456 -10 -457 -8 -1 1 49 206 112 455 125 496 125
489 63 519 -23 10 -33 10 -62 -2 -43 -18 -33 13 -173 -546 -58 -234 -107 -426
-108 -427 -1 -3 -254 -10 -1160 -33 -347 -9 -382 -11 -405 -28 -45 -34 -36
-107 17 -131 19 -9 156 -8 546 3 287 9 622 18 743 21 l221 7 -73 -315 c-40
-173 -113 -492 -163 -710 l-89 -396 -68 -113 c-183 -306 -321 -480 -412 -520
-51 -23 -71 -18 -111 28 -46 52 -74 113 -141 310 -70 205 -98 262 -156 321
-61 60 -146 79 -219 48 -76 -31 -187 -159 -282 -323 -55 -96 -51 -53 8 72 29
62 38 94 37 127 -2 28 15 103 46 207 53 180 54 202 3 232 -49 30 -98 7 -116
-54 -135 -473 -151 -518 -226 -651 -212 -375 -417 -585 -532 -545 -101 36
-182 312 -211 724 -9 114 -10 121 -37 144 -22 18 -35 22 -59 18 -34 -7 -50
-24 -133 -141 -176 -248 -433 -552 -455 -539 -24 15 29 275 86 427 63 164 156
317 240 395 120 109 192 109 310 3 42 -38 64 -51 87 -51 35 0 79 39 79 70 0
54 -75 132 -180 186 -46 24 -67 28 -135 28 -71 1 -88 -3 -148 -32 -105 -52
-210 -165 -294 -318 -25 -46 -78 -110 -167 -202 -243 -251 -426 -356 -530
-307 -77 37 -114 153 -125 395 -8 169 -19 207 -66 228 -107 49 -183 -48 -413
-529 -104 -220 -136 -279 -150 -279 -32 0 -52 209 -45 453 7 224 1 280 -32
313 -28 28 -74 31 -110 8 -53 -35 -377 -523 -525 -791 -13 -24 -25 -41 -27
-39 -6 6 49 209 109 406 52 173 137 409 194 543 40 94 42 120 9 152 -31 32
-78 33 -109 2 -21 -21 -98 -207 -170 -408 -26 -74 -135 -282 -219 -421 -171
-280 -360 -464 -453 -442 -113 26 -193 274 -225 690 -11 143 -15 161 -35 181
-28 28 -63 29 -97 3 -14 -11 -56 -64 -95 -117 -159 -223 -429 -553 -453 -553
-15 0 -9 111 11 203 27 121 74 255 130 368 60 121 99 180 169 248 118 116 209
118 324 7 54 -52 88 -59 131 -25 19 15 26 29 26 57 0 31 -8 44 -60 95 -85 82
-153 112 -255 112 -68 0 -89 -4 -138 -29 -78 -38 -173 -129 -243 -232 -32 -46
-66 -87 -78 -90 -37 -12 -810 -576 -1088 -795 -48 -38 -89 -69 -91 -69 -2 0
-21 25 -42 55 -48 70 -177 193 -283 268 -244 175 -601 346 -1327 637 -488 195
-514 208 -613 288 -211 172 -201 452 29 794 304 452 972 986 1679 1343 326
164 585 262 825 311 110 22 148 25 247 21 140 -5 194 -26 243 -96 28 -40 30
-49 34 -157 3 -108 4 -115 28 -134 34 -26 66 -25 98 3 23 19 27 32 32 99 17
224 -88 380 -292 433 -72 18 -247 18 -356 0z m-366 -4173 c12 -99 -37 -329
-107 -512 -223 -576 -750 -1142 -1341 -1440 -174 -88 -306 -132 -415 -138 -75
-4 -88 -2 -110 16 -90 73 72 363 412 739 276 306 765 752 1273 1163 105 84
208 168 230 186 22 18 43 33 46 34 3 0 9 -22 12 -48z"/>
<path d="M27210 15598 c-97 -48 -232 -273 -425 -708 -113 -255 -193 -456 -410
-1030 -603 -1593 -951 -2622 -1114 -3290 -65 -263 -84 -379 -85 -515 -1 -92 2
-117 19 -150 41 -81 125 -106 213 -64 248 121 889 1086 1845 2779 148 261 230
386 252 383 5 -1 14 -17 19 -35 5 -18 12 -397 16 -843 8 -857 14 -974 61
-1192 50 -232 131 -378 241 -434 177 -90 378 -7 663 276 476 473 924 1275
1260 2255 244 713 358 1372 286 1653 -50 195 -171 260 -340 182 -59 -28 -175
-116 -185 -141 -21 -53 14 -114 66 -114 15 0 52 20 89 46 75 56 143 87 168 79
48 -15 77 -160 67 -339 -29 -562 -322 -1509 -712 -2301 -265 -540 -534 -936
-826 -1221 -163 -158 -251 -220 -351 -245 -168 -42 -258 130 -308 591 -7 62
-14 427 -19 900 -6 699 -9 804 -24 870 -31 133 -80 191 -164 192 -92 1 -188
-105 -337 -372 -534 -958 -1112 -1909 -1449 -2385 -162 -229 -344 -435 -385
-435 -11 0 -13 18 -8 98 24 439 454 1777 1210 3768 316 832 487 1224 645 1478
l57 91 3 -130 c2 -116 5 -132 24 -152 30 -32 77 -30 109 3 23 25 24 31 24 172
0 117 -4 156 -18 193 -34 89 -103 123 -177 87z"/>
<path d="M36160 15609 c-131 -51 -326 -418 -489 -921 -86 -267 -151 -529 -434
-1761 l-65 -278 -97 -147 c-361 -541 -615 -831 -810 -924 -111 -52 -207 -36
-270 46 -50 66 -68 145 -68 301 0 203 55 423 145 585 42 77 145 190 171 190
23 0 29 -61 16 -149 -11 -70 -10 -83 4 -104 32 -49 108 -41 134 14 19 39 34
167 27 219 -18 122 -105 196 -206 175 -88 -18 -174 -99 -298 -280 -132 -193
-236 -320 -375 -460 -196 -198 -350 -305 -439 -305 -75 0 -100 57 -98 225 1
123 19 248 62 438 33 142 35 165 17 188 -15 20 -50 39 -71 39 -9 0 -34 -17
-57 -37 -31 -28 -63 -80 -130 -216 -274 -547 -550 -974 -783 -1215 -131 -135
-167 -150 -187 -79 -43 157 65 676 286 1381 36 115 65 224 65 242 0 51 -47 99
-97 99 -41 0 -57 -8 -286 -148 -60 -36 -134 -76 -165 -87 -58 -22 -162 -39
-162 -26 0 4 37 73 82 154 161 289 246 502 255 637 4 69 2 85 -17 113 -26 42
-81 66 -129 57 -137 -26 -336 -228 -442 -450 -62 -129 -82 -214 -77 -327 4
-77 9 -96 41 -160 l37 -72 -92 -120 c-278 -366 -576 -667 -751 -758 -178 -93
-315 -31 -357 163 -22 98 -9 301 30 459 l32 135 82 74 c44 41 127 121 183 179
289 293 390 547 250 632 -147 90 -394 -154 -562 -553 -147 -353 -215 -728
-171 -947 32 -158 106 -264 223 -321 106 -51 272 -22 420 73 208 135 534 473
774 804 57 77 65 85 88 79 14 -3 60 -8 101 -12 136 -10 266 40 489 186 23 15
24 15 19 -4 -3 -11 -28 -94 -56 -185 -270 -887 -325 -1359 -171 -1473 34 -24
106 -33 152 -18 197 65 505 447 836 1036 41 72 74 131 75 132 1 1 2 -50 3
-115 3 -255 91 -374 270 -359 138 11 352 153 562 373 l103 108 -8 -50 c-16
-95 -8 -293 15 -377 51 -193 164 -305 317 -315 256 -17 527 209 932 777 18 25
32 42 32 38 0 -3 -27 -129 -60 -279 -148 -667 -230 -1066 -230 -1119 0 -63 92
-107 132 -61 9 9 68 172 131 362 109 327 227 643 250 665 7 7 8 6 3 -2 -9 -17
12 -98 40 -155 27 -52 80 -110 122 -132 223 -114 614 83 1058 536 186 189 360
406 409 509 15 32 16 40 4 65 -8 15 -26 35 -41 44 -25 13 -31 13 -55 0 -16 -9
-53 -52 -83 -96 -184 -269 -476 -567 -731 -747 -160 -112 -367 -197 -444 -183
-44 9 -84 42 -102 85 l-15 36 78 69 c196 174 290 299 346 461 39 115 42 225 8
280 -71 114 -201 96 -343 -48 -81 -82 -213 -279 -308 -459 -38 -73 -67 -122
-64 -108 13 62 186 830 286 1265 l110 480 76 140 c293 535 532 1069 619 1382
41 146 55 309 32 352 -27 49 -92 77 -138 60z m-39 -347 c-54 -190 -147 -427
-288 -732 -47 -102 -89 -189 -94 -194 -22 -24 107 383 186 584 29 74 70 171
90 215 44 97 127 246 133 241 2 -3 -10 -54 -27 -114z m-4445 -1879 c-3 -10
-10 -37 -16 -60 -25 -96 -138 -341 -249 -538 l-50 -89 -16 37 c-19 46 -19 135
0 207 34 127 147 306 259 408 60 54 81 64 72 35z m-1181 -275 c-15 -29 -47
-80 -70 -113 -47 -65 -175 -211 -175 -198 0 18 85 163 138 237 53 73 120 141
130 131 3 -2 -8 -28 -23 -57z m5256 -724 c-15 -80 -78 -205 -145 -286 -30 -36
-104 -109 -164 -162 -60 -52 -117 -105 -126 -118 -9 -13 17 45 59 128 95 192
213 370 299 453 79 75 93 73 77 -15z"/>
<path d="M23313 13871 c-125 -32 -254 -184 -318 -373 -41 -125 -85 -469 -85
-673 l0 -61 -117 -124 c-64 -69 -189 -199 -277 -290 -178 -183 -258 -277 -334
-393 -81 -125 -114 -233 -98 -322 10 -49 73 -117 139 -146 47 -22 66 -24 197
-24 163 0 246 14 424 72 92 29 144 50 283 110 7 3 28 -26 52 -74 42 -86 143
-241 185 -285 69 -75 180 22 118 103 -42 54 -103 149 -152 239 -48 86 -51 95
-35 105 245 144 470 363 521 506 17 50 18 109 2 143 -25 56 -108 83 -192 61
-59 -15 -76 -35 -76 -86 0 -47 39 -83 82 -77 16 3 28 2 28 -2 0 -22 -74 -111
-163 -197 -101 -97 -250 -207 -270 -200 -23 7 -85 232 -117 428 -11 68 -23
187 -27 264 l-6 141 78 99 c182 233 329 489 376 659 40 141 29 274 -28 342
-38 46 -126 71 -190 55z m77 -170 c29 -56 1 -180 -79 -346 -53 -110 -212 -365
-227 -365 -17 0 23 324 53 430 52 186 210 361 253 281z m-460 -1225 c0 -100
63 -412 115 -573 l32 -101 -76 -36 c-201 -91 -497 -164 -628 -153 -122 9 -154
53 -113 156 49 124 159 260 449 553 208 211 220 220 221 154z"/>
<path d="M33095 13164 c-89 -46 -125 -140 -65 -172 31 -16 110 -9 149 14 59
35 79 111 41 152 -25 27 -81 29 -125 6z"/>
<path d="M19684 13031 c-173 -45 -353 -266 -469 -576 -65 -174 -97 -316 -98
-435 -1 -89 3 -111 21 -146 56 -108 171 -104 287 12 73 74 204 228 299 353 47
62 86 109 86 105 0 -41 44 -294 64 -369 82 -308 257 -437 458 -337 187 93 420
396 620 807 51 106 51 106 35 140 -32 67 -106 59 -146 -15 -267 -506 -451
-750 -603 -799 -143 -47 -240 204 -278 719 -9 118 -10 126 -36 148 -21 18 -35
22 -58 18 -34 -7 -48 -22 -138 -146 -168 -234 -423 -540 -449 -540 -26 0 4
188 57 352 68 209 158 371 264 472 118 113 191 115 313 7 56 -49 84 -59 122
-45 22 9 48 62 41 88 -8 34 -102 121 -167 156 -63 33 -163 47 -225 31z"/>
<path d="M16833 6008 c-168 -19 -330 -170 -378 -353 -57 -222 46 -468 240
-572 274 -145 604 48 644 377 13 101 -3 192 -50 288 -92 188 -257 283 -456
260z m147 -94 c144 -40 253 -184 267 -354 14 -172 -81 -347 -225 -413 -67 -31
-197 -31 -264 0 -151 69 -250 269 -220 443 22 124 92 236 179 287 91 53 168
64 263 37z"/>
<path d="M15390 5525 l0 -485 50 0 50 0 0 225 0 225 231 0 230 0 -3 38 -3 37
-227 3 -228 2 0 175 0 175 270 0 270 0 0 45 0 45 -320 0 -320 0 0 -485z"/>
<path d="M17830 5525 l0 -485 45 0 45 0 2 178 3 177 144 0 144 0 111 -175 112
-175 52 -3 c29 -2 52 0 52 3 0 3 -52 87 -115 186 -63 99 -115 182 -115 184 0
1 13 5 29 8 50 10 113 68 148 136 29 55 33 72 33 139 0 99 -35 178 -105 240
-73 64 -112 72 -367 72 l-218 0 0 -485z m495 369 c52 -35 71 -60 91 -118 42
-123 -36 -275 -148 -291 -24 -3 -110 -5 -193 -3 l-150 3 -3 218 -2 217 183 0
c181 0 185 0 222 -26z"/>
<path d="M19020 5525 l0 -485 325 0 325 0 0 40 0 40 -275 0 -275 0 0 185 0
185 235 0 235 0 0 40 0 40 -235 0 -235 0 0 175 0 175 270 0 270 0 0 45 0 45
-320 0 -320 0 0 -485z"/>
<path d="M20065 5991 c3 -10 93 -227 199 -482 l193 -464 44 0 43 0 198 474
c109 261 198 479 198 483 0 5 -21 8 -47 6 l-48 -3 -169 -417 c-94 -230 -172
-418 -175 -418 -4 0 -82 189 -176 420 l-170 420 -48 0 c-43 0 -48 -2 -42 -19z"/>
<path d="M21390 5525 l0 -485 325 0 325 0 0 40 0 40 -277 2 -278 3 -3 182 -2
183 237 2 238 3 3 37 3 38 -238 2 -238 3 -3 172 -2 173 272 2 273 3 3 43 3 42
-320 0 -321 0 0 -485z"/>
<path d="M22520 5525 l0 -485 50 0 50 0 0 180 0 181 142 -3 143 -3 113 -177
114 -178 54 0 53 0 -115 180 c-62 100 -114 184 -114 188 0 4 20 15 45 26 135
55 201 256 132 398 -15 31 -49 76 -76 101 -74 69 -112 77 -373 77 l-218 0 0
-485z m495 372 c23 -13 52 -42 70 -71 27 -44 30 -58 30 -126 0 -68 -3 -82 -30
-125 -20 -32 -45 -56 -74 -72 -41 -22 -55 -23 -218 -23 l-173 0 0 220 0 220
178 0 c165 0 180 -2 217 -23z"/>
<path d="M25890 5525 l0 -485 325 0 325 0 0 40 0 40 -277 2 -278 3 -3 182 -2
183 237 2 238 3 3 37 3 38 -238 2 -238 3 -3 173 -2 172 270 0 270 0 0 45 0 45
-315 0 -315 0 0 -485z"/>
<path d="M26923 5998 c8 -22 358 -860 379 -910 20 -46 22 -48 62 -48 l41 0
159 383 c88 210 179 428 203 485 l43 103 -51 -3 -51 -3 -169 -415 c-93 -228
-170 -419 -172 -424 -2 -5 -81 183 -176 417 l-174 427 -49 0 c-36 0 -49 -4
-45 -12z"/>
<path d="M28250 5525 l0 -485 325 0 325 0 0 40 0 40 -275 0 -275 0 0 185 0
185 235 0 235 0 0 40 0 40 -235 0 -235 0 0 175 0 175 270 0 270 0 0 45 0 45
-320 0 -320 0 0 -485z"/>
<path d="M29390 5526 l0 -486 45 0 45 0 0 180 0 180 144 0 143 0 114 -180 114
-180 53 0 c63 0 70 -21 -70 198 -116 181 -116 182 -91 182 31 0 106 53 136 97
107 155 58 368 -104 458 l-54 30 -237 3 -238 3 0 -485z m467 383 c61 -23 114
-96 128 -176 9 -54 -16 -140 -52 -184 -50 -59 -87 -69 -280 -69 l-173 0 0 220
0 220 174 0 c99 0 187 -5 203 -11z"/>
<path d="M24488 5658 l-3 -93 -82 -3 -83 -3 0 -34 0 -34 83 -3 82 -3 3 -92 3
-93 39 0 40 0 0 95 0 95 85 0 85 0 0 35 0 35 -85 0 -85 0 0 95 0 95 -40 0 -39
0 -3 -92z"/>
</g>
</svg>
